<?xml version="1.0" encoding="utf-8"?>
<!-- Generator: Adobe Illustrator 25.0.0, SVG Export Plug-In . SVG Version: 6.00 Build 0)  -->
<svg version="1.1" id="Layer_1" xmlns="http://www.w3.org/2000/svg" xmlns:xlink="http://www.w3.org/1999/xlink" x="0px" y="0px"
	 viewBox="0 0 1500 1500" style="enable-background:new 0 0 1500 1500;" xml:space="preserve">
<style type="text/css">
	.st0{fill:#FFFFFF;}
</style>
<g>
	<path class="st0" d="M1342.69,289.96c3.56,4.66,7.32,9.17,10.65,13.99c9.81,14.22,20.11,28.16,29.01,42.94
		c13.68,22.72,27.02,45.71,39.29,69.21c17.8,34.1,31.66,69.91,43.28,106.56c10.07,31.76,17.99,64.05,23.73,96.88
		c8.37,47.87,12.68,96.11,11,144.66c-0.97,27.93-3.37,55.88-6.75,83.62c-2.97,24.36-7.28,48.65-12.7,72.58
		c-6.54,28.87-15.4,57.14-25.41,85.08c-11.19,31.23-24.41,61.53-40.01,90.68c-12.37,23.12-26.3,45.44-40.34,67.62
		c-9.14,14.44-19.36,28.22-29.69,41.86c-27.31,36.09-58.62,68.62-92,99.01c-20.03,18.23-41.52,34.96-63.18,51.27
		c-28.72,21.63-59.53,40.2-91.42,56.81c-28.37,14.78-57.34,28.47-87.81,38.46c-27.39,8.98-54.79,18.22-82.72,25.19
		c-25.51,6.37-51.61,10.89-77.7,14.33c-25.77,3.39-51.97,3.45-77.73,6.87c-11.62,1.54-23.33,3.49-34.55,1.69
		c-21.44-3.44-43.16-2.11-64.5-5.41c-27.19-4.19-54.55-7.65-81.46-13.2c-60.72-12.52-118.72-33.16-174.29-60.73
		c-32.02-15.88-62.89-33.68-92.09-54.2c-18.92-13.3-37.45-27.27-55.28-42c-17.14-14.17-33.14-29.71-49.58-44.6
		c71.72-71.62,142.44-142.25,214.09-213.8c5.3,5.6,10.68,11.44,16.25,17.1c6.2,6.31,12.34,12.71,18.94,18.58
		c5.51,4.9,11.59,9.2,17.54,13.59c10,7.38,19.94,14.85,30.18,21.88c22.48,15.44,45.57,29.97,70.17,41.78
		c17.55,8.42,35.56,15.94,53.58,23.33c30.33,12.43,61.71,21.65,93.86,27.83c21.43,4.12,43.17,6.67,64.82,9.59
		c27.38,3.69,54.97,3.16,82.44,2.31c19.1-0.59,38.26-2.6,57.14-5.6c24.35-3.87,48.67-8.45,72.57-14.44
		c19.83-4.97,39.35-11.61,58.44-18.98c20.48-7.91,40.75-16.65,60.26-26.67c19.15-9.84,37.62-21.17,55.68-32.92
		c14.79-9.62,28.32-21.15,42.82-31.25c19.81-13.8,35.25-32.17,52.4-48.75c10.53-10.18,21.06-20.39,31-31.13
		c6.56-7.09,12.06-15.16,18.07-22.76c3.3-4.17,6.93-8.09,9.96-12.44c8.12-11.68,16.16-23.43,23.94-35.34
		c19.91-30.49,36.09-62.95,49.45-96.75c11.95-30.25,22.01-61.16,28.32-93.13c3.8-19.25,7.11-38.6,10.06-58
		c1.53-10.02,2.25-20.21,2.55-30.34c0.6-20.12,1.41-40.28,0.72-60.38c-0.67-19.75-2.18-39.56-4.98-59.11
		c-3.21-22.39-7.16-44.81-12.82-66.69c-5.98-23.15-13.97-45.82-21.78-68.45c-9.3-26.93-21.74-52.51-36-77.14
		c-8.31-14.35-17.61-28.14-26.5-42.16c-3.86-6.08-7.8-12.11-11.71-18.16C1342.15,290.49,1342.42,290.23,1342.69,289.96z"/>
	<path class="st0" d="M157.4,1208.1C30.78,1038.17-20.73,848.16,9.72,637.84C31.99,484.01,97.9,350,204.65,236.75
		C306.41,128.78,429.68,56.64,574.12,21.96c295.05-70.85,559.3,46.45,705.68,198.82c-6.16,6.18-12.33,12.39-18.52,18.58
		c-55.65,55.65-111.31,111.31-166.97,166.95c-8,8-16.13,15.88-24.02,23.99c-2.37,2.43-3.88,2.14-6.11-0.11
		c-10.22-10.32-20.4-20.67-30.95-30.64c-4.52-4.27-9.9-7.62-14.87-11.41c-5.38-4.11-10.63-8.39-16.13-12.33
		c-10.38-7.44-20.85-14.75-31.36-22.01c-25.43-17.56-52.66-31.98-80.78-44.59c-33.96-15.23-68.97-27.77-105.39-35.69
		c-23.46-5.1-47.11-9.67-70.9-12.75c-19.61-2.54-39.53-2.76-59.34-3.6c-10.61-0.45-21.3-0.67-31.89,0.06
		c-20.43,1.4-40.93,2.74-61.19,5.61c-21.11,2.99-42.27,6.63-62.87,12.02c-23.65,6.19-47.06,13.71-69.94,22.33
		c-21.14,7.96-41.93,17.21-61.97,27.62c-19.45,10.11-38.06,21.93-56.44,33.92c-13.29,8.67-25.55,18.91-38.37,28.31
		c-5.02,3.68-10.74,6.51-15.41,10.56c-7.16,6.2-13.75,13.07-20.49,19.75c-13.13,13.03-26.51,25.82-39.14,39.31
		c-7.5,8.01-13.76,17.17-20.61,25.79c-5.04,6.35-10.44,12.45-15.13,19.05c-8.53,11.99-16.78,24.17-24.92,36.43
		c-14.84,22.35-27.21,46.09-38.23,70.47c-7.05,15.6-13.34,31.63-18.78,47.86c-6.91,20.65-13.35,41.52-18.59,62.65
		c-4.28,17.22-6.66,34.93-9.59,52.47c-4.35,25.97-5.9,52.15-5.99,78.49c-0.08,22.95,0.02,45.88,3.27,68.62
		c3.28,22.88,6.66,45.79,11.2,68.45c3.26,16.28,8.04,32.31,13.01,48.17c5.02,16.01,10.75,31.83,16.88,47.45
		c4.74,12.06,10.21,23.88,16.03,35.47c6.92,13.79,14.24,27.4,21.96,40.75c5.96,10.3,12.79,20.1,19.27,30.1
		c4.06,6.26,8.2,12.47,12.3,18.71C158.37,1207.74,157.88,1207.92,157.4,1208.1z"/>
	<path class="st0" d="M750.86,864.58c-63.17-0.22-114.19-51.59-113.99-114.76c0.2-62.89,51.93-113.99,115.1-113.71
		c62.84,0.28,113.83,51.68,113.67,114.58C865.48,813.83,814.12,864.8,750.86,864.58z"/>
</g>
</svg>
