<?xml version="1.0" encoding="UTF-8"?>
<svg xmlns="http://www.w3.org/2000/svg" xmlns:xlink="http://www.w3.org/1999/xlink" width="96pt" height="96pt" viewBox="0 0 96 96" version="1.1">
<g id="surface6538444">
<path style=" stroke:none;fill-rule:nonzero;fill:rgb(100%,100%,100%);fill-opacity:1;" d="M 64 60 L 96 60 L 80 80 Z M 32 36 L 0 36 L 16 16 Z M 32 36 "/>
<path style=" stroke:none;fill-rule:nonzero;fill:rgb(100%,100%,100%);fill-opacity:1;" d="M 84 24 C 84 17.382812 78.617188 12 72 12 L 28.644531 12 L 35.042969 20 L 72 20 C 74.203125 20 76 21.792969 76 24 L 76 64 L 84 64 Z M 12 72 C 12 78.617188 17.382812 84 24 84 L 67.355469 84 L 60.957031 76 L 24 76 C 21.796875 76 20 74.207031 20 72 L 20 32 L 12 32 Z M 12 72 "/>
</g>
</svg>
