<?xml version="1.0" encoding="utf-8"?>
<!-- Generator: Adobe Illustrator 25.0.0, SVG Export Plug-In . SVG Version: 6.00 Build 0)  -->
<svg version="1.1" id="Layer_1" xmlns="http://www.w3.org/2000/svg" xmlns:xlink="http://www.w3.org/1999/xlink" x="0px" y="0px"
	 viewBox="0 0 160 160" style="enable-background:new 0 0 160 160;" xml:space="preserve">
<style type="text/css">
	.st0{fill:#FFFFFF;}
</style>
<path class="st0" d="M14.4,143l11.3-11.3l-0.7-0.7C12.1,117.1,5,99,5,80C5,38.6,38.6,5,80,5c3.4,0,7,0.3,11,0.9v18.2
	c-3.7-0.7-7.4-1.1-11-1.1c-31.4,0-57,25.6-57,57c0,14.1,5.3,27.6,14.8,38.1l0.7,0.8L51,106.4V143H14.4z"/>
<path class="st0" d="M80,6c3.1,0,6.4,0.3,10,0.8v16.1c-3.3-0.6-6.7-0.9-10-0.9c-32,0-58,26-58,58c0,14.3,5.3,28.1,15.1,38.8l1.4,1.6
	l1.5-1.5l10-10V142H16.8l8.9-8.9l1.4-1.4l-1.3-1.4C13,116.6,6,98.7,6,80C6,39.2,39.2,6,80,6 M80,4C38,4,4,38,4,80
	c0,20,7.7,38.1,20.3,51.7L12,144h40v-40l-13.5,13.5c-9-9.9-14.5-23-14.5-37.5c0-30.9,25.1-56,56-56c4.1,0,8.1,0.5,12,1.3V5
	C88.1,4.4,84.1,4,80,4L80,4z"/>
<g>
	<path class="st0" d="M80,155c-3.4,0-7-0.3-11-0.9v-18.2c3.7,0.7,7.4,1.1,11,1.1c31.4,0,57-25.6,57-57c0-14.1-5.3-27.6-14.8-38.2
		l-0.7-0.8L109,53.6V17h36.6l-11.4,11.4l0.7,0.7C147.9,43,155,61.1,155,80C155,121.4,121.4,155,80,155z"/>
	<path class="st0" d="M143.2,18l-9,9l-1.4,1.4l1.3,1.4C147,43.5,154,61.3,154,80c0,40.8-33.2,74-74,74c-3.1,0-6.4-0.3-10-0.8v-16.1
		c3.3,0.6,6.7,0.9,10,0.9c32,0,58-26,58-58c0-14.3-5.3-28.1-15-38.8l-1.4-1.6l-1.5,1.5L110,51.2V18H143.2 M148,16h-40v40l13.5-13.5
		c9,9.9,14.5,23,14.5,37.5c0,30.9-25.1,56-56,56c-4.1,0-8.1-0.5-12-1.3V155c3.9,0.6,7.9,1,12,1c42,0,76-34,76-76
		c0-20-7.8-38.1-20.4-51.6L148,16L148,16z"/>
</g>
</svg>
